<?xml version="1.0" standalone="no"?>
<!DOCTYPE svg PUBLIC "-//W3C//DTD SVG 20010904//EN"
 "http://www.w3.org/TR/2001/REC-SVG-20010904/DTD/svg10.dtd">
<svg version="1.0" xmlns="http://www.w3.org/2000/svg"
 width="77.000000pt" height="65.000000pt" viewBox="0 0 77.000000 65.000000"
 preserveAspectRatio="xMidYMid meet">

<g transform="translate(0.000000,65.000000) scale(0.100000,-0.100000)"
fill="#000000" stroke="none">
<path d="M362 598 c-17 -17 -15 -53 3 -68 22 -19 64 -4 71 25 4 15 1 32 -6 40
-15 18 -51 20 -68 3z m62 -20 c8 -14 7 -21 -6 -34 -30 -30 -75 9 -48 42 16 18
39 15 54 -8z"/>
<path d="M136 534 c-9 -8 -16 -22 -16 -29 0 -19 28 -45 49 -45 19 0 51 30 51
48 0 17 -30 42 -50 42 -10 0 -26 -7 -34 -16z m59 -29 c0 -25 -4 -30 -25 -30
-16 0 -26 6 -28 18 -6 30 6 49 30 45 18 -2 23 -9 23 -33z"/>
<path d="M592 538 c-17 -17 -15 -65 4 -72 32 -12 55 -6 66 19 9 21 8 28 -7 45
-20 23 -45 26 -63 8z m53 -14 c18 -18 16 -33 -7 -47 -35 -22 -66 21 -36 51 16
16 23 15 43 -4z"/>
<path d="M323 489 c-23 -8 -39 -48 -30 -71 3 -7 6 -2 6 13 2 46 39 63 71 34
16 -14 20 -14 47 1 39 23 63 13 63 -26 0 -16 5 -30 10 -30 6 0 10 6 10 13 -1
33 -15 57 -40 66 -23 8 -32 6 -46 -10 -15 -16 -20 -17 -33 -6 -26 23 -35 25
-58 16z"/>
<path d="M124 417 c-3 -8 -3 -56 -2 -108 l3 -94 55 -3 c31 -2 62 -10 72 -18 9
-9 24 -49 33 -91 9 -41 19 -72 22 -70 9 10 -29 156 -44 169 -9 7 -41 15 -72
18 l-56 5 0 94 c0 112 9 121 64 61 29 -32 47 -43 79 -47 28 -4 42 -2 42 6 0 6
-16 11 -38 11 -31 0 -45 7 -77 40 -39 40 -71 51 -81 27z"/>
<path d="M582 390 c-31 -32 -45 -40 -82 -43 l-45 -4 47 -1 c43 -2 50 2 86 40
61 63 73 51 70 -64 l-3 -93 -56 -3 c-40 -2 -62 -9 -73 -21 -18 -19 -58 -171
-46 -171 4 0 12 26 19 57 24 116 29 120 121 125 l45 3 3 94 c4 131 -19 153
-86 81z"/>
<path d="M52 308 c-3 -116 9 -139 81 -162 13 -4 17 -17 17 -60 0 -52 -1 -55
-27 -59 -16 -2 -1 -4 32 -4 33 0 50 2 38 4 -21 4 -23 10 -23 59 0 51 1 54 25
54 14 0 25 5 25 10 0 6 -24 10 -54 10 -87 0 -100 17 -107 137 l-6 98 -1 -87z"/>
<path d="M720 295 c0 -119 -11 -135 -95 -135 -30 0 -55 -4 -55 -10 0 -5 11
-10 25 -10 24 0 25 -3 25 -54 0 -49 -2 -55 -22 -59 -13 -2 4 -4 37 -4 42 -1
51 1 30 6 -28 6 -30 9 -33 59 -3 51 -2 52 27 58 16 4 40 17 53 31 20 21 23 37
26 119 3 64 0 94 -7 94 -7 0 -11 -33 -11 -95z"/>
<path d="M180 301 c0 -17 5 -33 10 -36 6 -4 10 8 10 29 0 20 -4 36 -10 36 -5
0 -10 -13 -10 -29z"/>
<path d="M593 295 c0 -22 2 -30 4 -17 2 12 2 30 0 40 -3 9 -5 -1 -4 -23z"/>
<path d="M318 273 c46 -2 118 -2 160 0 42 1 5 3 -83 3 -88 0 -123 -2 -77 -3z"/>
</g>
</svg>
